<?xml version="1.0" standalone="no"?><!DOCTYPE svg PUBLIC "-//W3C//DTD SVG 1.1//EN" "http://www.w3.org/Graphics/SVG/1.1/DTD/svg11.dtd"><svg t="1660555553007" class="icon" viewBox="0 0 1024 1024" version="1.1" xmlns="http://www.w3.org/2000/svg" p-id="2353" xmlns:xlink="http://www.w3.org/1999/xlink" width="200" height="200"><defs><style type="text/css">@font-face { font-family: feedback-iconfont; src: url("//at.alicdn.com/t/font_1031158_u69w8yhxdu.woff2?t=1630033759944") format("woff2"), url("//at.alicdn.com/t/font_1031158_u69w8yhxdu.woff?t=1630033759944") format("woff"), url("//at.alicdn.com/t/font_1031158_u69w8yhxdu.ttf?t=1630033759944") format("truetype"); }
</style></defs><path d="M897.6 0H128C57.6 0 0 57.6 0 128v768c0 70.4 57.6 128 128 128h768c70.4 0 128-57.6 128-128V128c0-70.4-56-128-126.4-128zM451.2 776c0 33.6-27.2 60.8-60.8 60.8H200c-33.6 0-60.8-27.2-62.4-60.8V195.2c0-33.6 27.2-60.8 60.8-60.8h188.8c33.6 0 60.8 27.2 60.8 60.8l3.2 580.8z m440-256c0 33.6-27.2 60.8-60.8 60.8H644.8c-33.6 0-60.8-27.2-60.8-60.8V195.2c0-33.6 27.2-60.8 60.8-60.8h185.6c33.6 0 60.8 27.2 60.8 60.8v324.8z" p-id="2354" fill="#cccccc"></path></svg>