<?xml version="1.0" standalone="no"?><!DOCTYPE svg PUBLIC "-//W3C//DTD SVG 1.1//EN" "http://www.w3.org/Graphics/SVG/1.1/DTD/svg11.dtd"><svg t="1660551130611" class="icon" viewBox="0 0 1024 1024" version="1.1" xmlns="http://www.w3.org/2000/svg" p-id="15456" xmlns:xlink="http://www.w3.org/1999/xlink" width="200" height="200"><defs><style type="text/css">@font-face { font-family: feedback-iconfont; src: url("//at.alicdn.com/t/font_1031158_u69w8yhxdu.woff2?t=1630033759944") format("woff2"), url("//at.alicdn.com/t/font_1031158_u69w8yhxdu.woff?t=1630033759944") format("woff"), url("//at.alicdn.com/t/font_1031158_u69w8yhxdu.ttf?t=1630033759944") format("truetype"); }
</style></defs><path d="M701.44 332.8h199.68L655.36 78.506667v209.92c0 25.6 20.48 44.373333 46.08 44.373333z m0 0" fill="#cccccc" p-id="15457"></path><path d="M701.44 395.946667c-59.733333 0-109.226667-49.493333-109.226667-109.226667V59.733333H213.333333C153.6 59.733333 105.813333 109.226667 105.813333 168.96v687.786667c0 59.733333 49.493333 109.226667 109.226667 109.226666h595.626667c59.733333 0 109.226667-49.493333 109.226666-109.226666v-460.8H701.44zM674.133333 768h-324.266666c-17.066667 0-32.426667-13.653333-32.426667-32.426667 0-17.066667 13.653333-32.426667 32.426667-32.426666h322.56c17.066667 0 32.426667 13.653333 32.426666 32.426666 0 18.773333-13.653333 32.426667-30.72 32.426667z m0-191.146667h-324.266666c-17.066667 0-32.426667-13.653333-32.426667-32.426666 0-17.066667 13.653333-32.426667 32.426667-32.426667h322.56c17.066667 0 32.426667 13.653333 32.426666 32.426667 0 18.773333-13.653333 32.426667-30.72 32.426666z m0 0" fill="#cccccc" p-id="15458"></path></svg>